<svg width="253" height="109" viewBox="0 0 253 109" fill="none" xmlns="http://www.w3.org/2000/svg">
<path fill-rule="evenodd" clip-rule="evenodd" d="M28.2507 21.7968C28.9746 18.7089 29.3365 15.0761 29.3365 10.8984C29.3365 6.53904 28.9746 2.90624 28.2507 0H1.10473C0.380834 2.90624 0.0188882 6.53904 0.0188882 10.8984C0.0188882 15.0761 0.380834 18.7089 1.10473 21.7968H28.2507Z" fill="white"/>
<path fill-rule="evenodd" clip-rule="evenodd" d="M55.4166 32.6952C56.1405 29.6073 56.5024 25.9745 56.5024 21.7968C56.5024 17.4374 56.1405 13.8046 55.4166 10.8984H28.2706C27.5467 13.8046 27.1848 17.4374 27.1848 21.7968C27.1848 25.9745 27.5467 29.6073 28.2706 32.6952H55.4166Z" fill="white"/>
<path fill-rule="evenodd" clip-rule="evenodd" d="M82.5824 43.5936C83.3063 40.5057 83.6683 36.8729 83.6683 32.6952C83.6683 28.3359 83.3063 24.703 82.5824 21.7968H55.4365C54.7126 24.703 54.3506 28.3359 54.3506 32.6952C54.3506 36.8729 54.7126 40.5057 55.4365 43.5936H82.5824Z" fill="white"/>
<path fill-rule="evenodd" clip-rule="evenodd" d="M109.748 54.492C110.472 51.4041 110.834 47.7713 110.834 43.5936C110.834 39.2343 110.472 35.6015 109.748 32.6952H82.6023C81.8784 35.6015 81.5165 39.2343 81.5165 43.5936C81.5165 47.7713 81.8784 51.4041 82.6023 54.492H109.748Z" fill="white"/>
<path fill-rule="evenodd" clip-rule="evenodd" d="M136.914 65.3904C137.638 62.3025 138 58.6697 138 54.492C138 50.1327 137.638 46.4999 136.914 43.5936H109.768C109.044 46.4999 108.682 50.1327 108.682 54.492C108.682 58.6697 109.044 62.3025 109.768 65.3904H136.914Z" fill="white"/>
<path fill-rule="evenodd" clip-rule="evenodd" d="M109.744 76.2926C110.467 73.2047 110.829 69.5719 110.829 65.3941C110.829 61.0348 110.467 57.402 109.744 54.4958H82.5976C81.8737 57.402 81.5118 61.0348 81.5118 65.3941C81.5118 69.5719 81.8737 73.2047 82.5976 76.2926H109.744Z" fill="white"/>
<path fill-rule="evenodd" clip-rule="evenodd" d="M82.573 87.1952C83.2969 84.1073 83.6588 80.4745 83.6588 76.2968C83.6588 71.9375 83.2969 68.3046 82.573 65.3984H55.427C54.7031 68.3046 54.3412 71.9375 54.3412 76.2968C54.3412 80.4745 54.7031 84.1073 55.427 87.1952H82.573Z" fill="white"/>
<path fill-rule="evenodd" clip-rule="evenodd" d="M55.4024 98.0976C56.1263 95.0097 56.4882 91.3769 56.4882 87.1992C56.4882 82.8398 56.1263 79.207 55.4024 76.3008H28.2564C27.5325 79.207 27.1706 82.8398 27.1706 87.1992C27.1706 91.3769 27.5325 95.0097 28.2564 98.0976H55.4024Z" fill="white"/>
<path fill-rule="evenodd" clip-rule="evenodd" d="M28.2318 109C28.9557 105.912 29.3177 102.279 29.3177 98.1016C29.3177 93.7422 28.9557 90.1094 28.2318 87.2032H1.08584C0.361946 90.1094 0 93.7422 0 98.1016C0 102.279 0.361946 105.912 1.08584 109H28.2318Z" fill="white"/>
<path fill-rule="evenodd" clip-rule="evenodd" d="M251.232 109C251.956 105.912 252.318 102.279 252.318 98.1016C252.318 93.7422 251.956 90.1094 251.232 87.2032H224.086C223.362 90.1094 223 93.7422 223 98.1016C223 102.279 223.362 105.912 224.086 109H251.232Z" fill="white"/>
</svg>
